HIERARCHY
ROOT mPelvis
{
	OFFSET 0.000000 1.067000 -0.000000
	CHANNELS 6 Xposition Yposition Zposition Xrotation Yrotation Zrotation
	JOINT mTorso
	{
		OFFSET 0.000000 0.084000 -0.000000
		CHANNELS 3 Xrotation Yrotation Zrotation
		JOINT mChest
		{
			OFFSET 0.000000 0.205000 -0.015000
			CHANNELS 3 Xrotation Yrotation Zrotation
			JOINT mNeck
			{
				OFFSET 0.000000 0.251000 -0.010000
				CHANNELS 3 Xrotation Yrotation Zrotation
				JOINT mHead
				{
					OFFSET 0.000000 0.076000 0.000000
					CHANNELS 3 Xrotation Yrotation Zrotation
					JOINT mSkull
					{
						OFFSET 0.000000 0.079000 0.000000
						CHANNELS 3 Xrotation Yrotation Zrotation
						End Site
						{
							OFFSET -0.000000 -0.100000 0.000000
						}
					}
					JOINT mEyeRight
					{
						OFFSET -0.036000 0.079000 0.098000
						CHANNELS 3 Xrotation Yrotation Zrotation
						End Site
						{
							OFFSET -0.000000 -0.100000 0.000000
						}
					}
					JOINT mEyeLeft
					{
						OFFSET 0.036000 0.079000 0.098000
						CHANNELS 3 Xrotation Yrotation Zrotation
						End Site
						{
							OFFSET -0.000000 -0.100000 0.000000
						}
					}
					JOINT HEAD
					{
						OFFSET 0.000000 0.070000 0.020000
						CHANNELS 3 Xrotation Yrotation Zrotation
						End Site
						{
							OFFSET -0.000000 -0.100000 0.000000
						}
					}
				}
				JOINT NECK
				{
					OFFSET 0.000000 0.020000 0.000000
					CHANNELS 3 Xrotation Yrotation Zrotation
					End Site
					{
						OFFSET -0.000000 -0.100000 0.000000
					}
				}
			}
			JOINT mCollarLeft
			{
				OFFSET 0.085000 0.165000 -0.021000
				CHANNELS 3 Xrotation Yrotation Zrotation
				JOINT mShoulderLeft
				{
					OFFSET 0.079000 0.000000 -0.000000
					CHANNELS 3 Xrotation Yrotation Zrotation
					JOINT mElbowLeft
					{
						OFFSET 0.248000 0.000000 -0.000000
						CHANNELS 3 Xrotation Yrotation Zrotation
						JOINT mWristLeft
						{
							OFFSET 0.205000 0.000000 -0.000000
							CHANNELS 3 Xrotation Yrotation Zrotation
							JOINT L_HAND
							{
								OFFSET 0.050000 0.000000 0.010000
								CHANNELS 3 Xrotation Yrotation Zrotation
								End Site
								{
									OFFSET 0.000000 -0.100000 0.000000
								}
							}
						}
						JOINT L_LOWER_ARM
						{
							OFFSET 0.100000 0.000000 -0.000000
							CHANNELS 3 Xrotation Yrotation Zrotation
							End Site
							{
								OFFSET 0.000000 -0.100000 0.000000
							}
						}
					}
					JOINT L_UPPER_ARM
					{
						OFFSET 0.120000 0.010000 -0.000000
						CHANNELS 3 Xrotation Yrotation Zrotation
						End Site
						{
							OFFSET 0.000000 -0.100000 0.000000
						}
					}
				}
				JOINT L_CLAVICLE
				{
					OFFSET 0.000000 0.020000 0.020000
					CHANNELS 3 Xrotation Yrotation Zrotation
					End Site
					{
						OFFSET -0.000000 -0.100000 0.000000
					}
				}
			}
			JOINT mCollarRight
			{
				OFFSET -0.085000 0.165000 -0.021000
				CHANNELS 3 Xrotation Yrotation Zrotation
				JOINT mShoulderRight
				{
					OFFSET -0.079000 0.000000 0.000000
					CHANNELS 3 Xrotation Yrotation Zrotation
					JOINT mElbowRight
					{
						OFFSET -0.248000 0.000000 0.000000
						CHANNELS 3 Xrotation Yrotation Zrotation
						JOINT mWristRight
						{
							OFFSET -0.205000 0.000000 0.000000
							CHANNELS 3 Xrotation Yrotation Zrotation
							JOINT R_HAND
							{
								OFFSET -0.050000 0.000000 0.010000
								CHANNELS 3 Xrotation Yrotation Zrotation
								End Site
								{
									OFFSET 0.000000 -0.100000 0.000000
								}
							}
						}
						JOINT R_LOWER_ARM
						{
							OFFSET -0.100000 0.000000 0.000000
							CHANNELS 3 Xrotation Yrotation Zrotation
							End Site
							{
								OFFSET 0.000000 -0.100000 0.000000
							}
						}
					}
					JOINT R_UPPER_ARM
					{
						OFFSET -0.120000 0.010000 0.000000
						CHANNELS 3 Xrotation Yrotation Zrotation
						End Site
						{
							OFFSET 0.000000 -0.100000 0.000000
						}
					}
				}
				JOINT R_CLAVICLE
				{
					OFFSET 0.000000 0.020000 0.020000
					CHANNELS 3 Xrotation Yrotation Zrotation
					End Site
					{
						OFFSET -0.000000 -0.100000 0.000000
					}
				}
			}
			JOINT CHEST
			{
				OFFSET 0.000000 0.070000 0.028000
				CHANNELS 3 Xrotation Yrotation Zrotation
				End Site
				{
					OFFSET -0.000000 -0.100000 0.000000
				}
			}
			JOINT LEFT_PEC
			{
				OFFSET 0.082000 0.042000 0.119000
				CHANNELS 3 Xrotation Yrotation Zrotation
				End Site
				{
					OFFSET 0.000000 -0.100000 0.000000
				}
			}
			JOINT RIGHT_PEC
			{
				OFFSET -0.082000 0.042000 0.119000
				CHANNELS 3 Xrotation Yrotation Zrotation
				End Site
				{
					OFFSET 0.000000 -0.100000 0.000000
				}
			}
			JOINT UPPER_BACK
			{
				OFFSET 0.000000 0.017253 0.000000
				CHANNELS 3 Xrotation Yrotation Zrotation
				End Site
				{
					OFFSET -0.000000 -0.100000 0.000000
				}
			}
		}
		JOINT BELLY
		{
			OFFSET 0.000000 0.040000 0.028000
			CHANNELS 3 Xrotation Yrotation Zrotation
			End Site
			{
				OFFSET -0.000000 -0.100000 0.000000
			}
		}
		JOINT LOWER_BACK
		{
			OFFSET 0.000000 0.022848 -0.000000
			CHANNELS 3 Xrotation Yrotation Zrotation
			End Site
			{
				OFFSET -0.000000 -0.100000 0.000000
			}
		}
	}
	JOINT mHipRight
	{
		OFFSET -0.129000 -0.041000 0.034000
		CHANNELS 3 Xrotation Yrotation Zrotation
		JOINT mKneeRight
		{
			OFFSET 0.049000 -0.491000 -0.001000
			CHANNELS 3 Xrotation Yrotation Zrotation
			JOINT mAnkleRight
			{
				OFFSET -0.000000 -0.468000 -0.029000
				CHANNELS 3 Xrotation Yrotation Zrotation
				JOINT mFootRight
				{
					OFFSET 0.000000 -0.061000 0.112000
					CHANNELS 3 Xrotation Yrotation Zrotation
					JOINT mToeRight
					{
						OFFSET 0.000000 0.000000 0.109000
						CHANNELS 3 Xrotation Yrotation Zrotation
						End Site
						{
							OFFSET -0.000000 -0.100000 0.000000
						}
					}
				}
				JOINT R_FOOT
				{
					OFFSET 0.000000 -0.041000 0.077000
					CHANNELS 3 Xrotation Yrotation Zrotation
					End Site
					{
						OFFSET 0.000000 -0.100000 0.000000
					}
				}
			}
			JOINT R_LOWER_LEG
			{
				OFFSET -0.000000 -0.200000 -0.020000
				CHANNELS 3 Xrotation Yrotation Zrotation
				End Site
				{
					OFFSET -0.000000 -0.100000 0.000000
				}
			}
		}
		JOINT R_UPPER_LEG
		{
			OFFSET 0.050000 -0.220000 -0.020000
			CHANNELS 3 Xrotation Yrotation Zrotation
			End Site
			{
				OFFSET -0.000000 -0.100000 0.000000
			}
		}
	}
	JOINT mHipLeft
	{
		OFFSET 0.127000 -0.041000 0.034000
		CHANNELS 3 Xrotation Yrotation Zrotation
		JOINT mKneeLeft
		{
			OFFSET -0.046000 -0.491000 -0.001000
			CHANNELS 3 Xrotation Yrotation Zrotation
			JOINT mAnkleLeft
			{
				OFFSET 0.001000 -0.468000 -0.029000
				CHANNELS 3 Xrotation Yrotation Zrotation
				JOINT mFootLeft
				{
					OFFSET 0.000000 -0.061000 0.112000
					CHANNELS 3 Xrotation Yrotation Zrotation
					JOINT mToeLeft
					{
						OFFSET 0.000000 0.000000 0.109000
						CHANNELS 3 Xrotation Yrotation Zrotation
						End Site
						{
							OFFSET -0.000000 -0.100000 0.000000
						}
					}
				}
				JOINT L_FOOT
				{
					OFFSET 0.000000 -0.041000 0.077000
					CHANNELS 3 Xrotation Yrotation Zrotation
					End Site
					{
						OFFSET 0.000000 -0.100000 0.000000
					}
				}
			}
			JOINT L_LOWER_LEG
			{
				OFFSET -0.000000 -0.200000 -0.020000
				CHANNELS 3 Xrotation Yrotation Zrotation
				End Site
				{
					OFFSET -0.000000 -0.100000 0.000000
				}
			}
		}
		JOINT L_UPPER_LEG
		{
			OFFSET -0.050000 -0.220000 -0.020000
			CHANNELS 3 Xrotation Yrotation Zrotation
			End Site
			{
				OFFSET -0.000000 -0.100000 0.000000
			}
		}
	}
	JOINT PELVIS
	{
		OFFSET -0.000000 -0.020000 -0.010000
		CHANNELS 3 Xrotation Yrotation Zrotation
		End Site
		{
			OFFSET -0.000000 -0.100000 0.000000
		}
	}
	JOINT BUTT
	{
		OFFSET -0.000000 -0.100000 -0.060000
		CHANNELS 3 Xrotation Yrotation Zrotation
		End Site
		{
			OFFSET -0.000000 -0.100000 0.000000
		}
	}
}
MOTION
Frames: 5
Frame Time: 0.022222
0.000000 1.067000 -0.000000 -0.000000 -0.000000 0.000000 0.362063 -22.997756 1.779650 0.025704 -8.558342 0.343530 -0.000002 -21.788626 -0.000001 -0.000003 -25.099323 -0.000001 0.000002 0.000022 -179.999991 0.000000 0.000001 0.000000 0.000000 0.000001 0.000000 0.000000 0.000001 0.000000 -0.000000 -0.000003 -0.000000 0.000000 0.000000 -0.000000 -0.555776 -0.055918 -76.463667 0.000004 -4.503849 -0.000000 0.879868 -0.033828 -4.403511 -0.000009 0.000000 -0.000001 0.000003 -0.000000 -0.000001 -0.000001 0.000000 0.000000 0.000000 0.000005 0.000000 0.000002 -26.707411 -0.000000 -3.054852 16.190132 79.529944 -0.000001 -0.000001 -0.000001 1.046035 0.047840 5.237182 -0.000000 -0.000000 0.000002 0.000003 -0.000000 -0.000000 -0.000001 -0.000000 -0.000000 0.000000 -0.000004 -0.000000 0.000000 -0.000001 -0.000000 0.000000 -0.000000 -0.000000 0.000000 0.000000 -0.000000 0.000000 -0.000001 -0.000000 0.000001 -0.000001 0.000000 0.000001 -0.000002 -0.000000 -0.000000 -0.000000 -0.000000 -0.000000 0.000003 0.000136 -0.000005 0.000000 -0.000000 -0.000008 0.000017 -0.000027 0.000000 -0.000000 -0.000000 -0.000010 0.000016 -0.000028 -0.000001 0.000000 0.000000 -0.000000 0.000003 0.000136 0.000000 0.000000 -0.000000 0.000000 0.000002 -0.000100 -0.000003 0.000002 -0.000001 0.000009 -0.000013 0.000025 0.000000 -0.000000 0.000000 0.000009 -0.000013 0.000025 0.000000 0.000001 0.000000 0.000000 0.000002 -0.000100 -0.000000 -0.000000 0.000000 -0.000000 -0.000000 0.000000 
0.000000 1.067000 -0.000000 -0.000000 -0.000000 0.000000 0.363243 -23.032661 1.782666 0.025790 -8.572547 0.344109 -0.000003 -21.841688 -0.000000 -0.000003 -25.623062 -0.000000 0.000003 0.000023 -179.999991 0.000000 0.000002 0.000000 0.000000 0.000002 0.000000 0.000000 0.000002 0.000000 -0.000000 0.000000 -0.000000 -0.000000 -0.000002 0.000000 -0.555756 -0.057457 -76.143072 0.000002 -4.781833 0.000001 0.879870 -0.033828 -4.403510 -0.000003 -0.000000 0.000000 0.000003 0.000000 -0.000002 -0.000001 0.000001 0.000000 -0.000000 0.000005 -0.000000 0.000002 -26.747871 0.000000 -3.047587 16.219268 79.330865 -0.000001 -0.000001 -0.000000 1.046037 0.047840 5.237182 0.000000 0.000004 -0.000000 0.000001 0.000001 0.000000 -0.000000 -0.000000 0.000000 -0.000000 -0.000004 0.000000 0.000000 0.000002 -0.000000 -0.000000 0.000003 0.000000 -0.000000 -0.000000 0.000000 0.000000 0.000002 0.000000 0.000000 -0.000001 0.000000 0.000000 -0.000001 -0.000000 -0.000000 -0.000000 -0.000000 -0.000000 0.000003 0.000136 -0.000005 0.000000 -0.000000 -0.000008 0.000017 -0.000027 0.000000 -0.000000 -0.000000 -0.000010 0.000016 -0.000028 -0.000001 0.000000 0.000000 -0.000000 0.000003 0.000136 0.000000 0.000000 -0.000000 0.000000 0.000002 -0.000100 -0.000003 0.000002 -0.000001 0.000009 -0.000013 0.000025 0.000000 -0.000000 0.000000 0.000009 -0.000013 0.000025 0.000000 0.000001 0.000000 0.000000 0.000002 -0.000100 -0.000000 -0.000000 0.000000 -0.000000 -0.000000 0.000000 
0.000000 1.067000 -0.000000 0.116206 -0.000000 -0.000000 0.352208 -22.997901 1.778349 0.003342 -8.560751 0.342841 -0.055140 -21.851421 -0.003580 -0.032212 -26.120233 0.002472 0.000002 0.000022 -179.999991 0.000000 -0.000000 -0.000000 0.000000 -0.000000 -0.000000 0.000000 -0.000000 -0.000000 0.000000 0.000003 -0.000000 -0.003748 -0.021326 -0.029988 -0.555642 -0.089851 -75.817764 -0.000000 -5.070631 0.000001 0.942304 -0.036147 -4.345855 0.000000 -0.000001 0.000001 0.000002 -0.000001 0.000001 -0.000003 0.000001 -0.000000 0.000000 0.000003 0.000000 0.003673 -26.687574 0.031693 -3.033861 16.255989 79.114457 -0.000002 0.025372 -0.000000 1.108234 0.050511 5.178407 0.000002 0.000001 0.000001 -0.000002 -0.000000 0.000001 -0.000003 -0.000000 0.000000 -0.000000 0.000001 -0.000000 -0.000000 -0.000002 0.000000 -0.000000 -0.000001 -0.000000 -0.000000 -0.000000 0.000000 0.000000 -0.000000 0.000000 -0.000000 -0.000003 0.000000 -0.000000 -0.000004 0.000000 -0.120921 -0.012068 0.000210 0.008465 0.000035 -0.000388 0.008297 0.000932 -0.000833 -0.000013 0.000016 -0.000030 0.000000 0.000000 -0.000000 -0.000013 0.000015 -0.000030 -0.000001 0.000001 0.000000 -0.000000 0.000002 0.000135 -0.120897 0.011325 0.000282 0.007808 0.000049 -0.000581 0.009875 -0.001097 0.000878 0.000015 -0.000013 0.000025 -0.000000 -0.000000 0.000000 0.000016 -0.000013 0.000025 -0.000001 0.000001 0.000000 0.000000 0.000002 -0.000099 -0.000000 -0.000000 -0.000000 -0.000000 -0.000000 -0.000000 
0.000000 1.067000 -0.000000 0.458190 -0.000000 -0.000000 0.319814 -22.895749 1.765711 -0.062637 -8.523757 0.339049 -0.217373 -21.839424 -0.014087 -0.127088 -26.596521 0.009170 0.000002 0.000021 -179.999991 -0.000000 -0.000000 0.000000 -0.000000 -0.000000 0.000000 -0.000000 -0.000000 0.000000 0.000000 -0.000000 0.000000 -0.014826 -0.084001 -0.118127 -0.554941 -0.182016 -75.488309 0.000002 -5.369677 0.000002 1.125903 -0.042603 -4.176302 0.000000 -0.000003 -0.000001 0.000001 -0.000000 -0.000001 -0.000000 0.000001 0.000001 0.000000 0.000002 0.000000 0.014238 -26.510304 0.124742 -3.008972 16.303452 78.873556 0.000004 0.099930 0.000001 1.291158 0.057988 5.005544 -0.000001 0.000002 -0.000001 -0.000000 0.000001 0.000000 0.000001 0.000001 0.000001 0.000000 0.000002 0.000000 -0.000000 -0.000002 0.000000 -0.000000 -0.000002 -0.000000 -0.000000 0.000002 0.000000 0.000000 -0.000001 0.000000 0.000000 -0.000000 0.000000 0.000000 -0.000001 0.000000 -0.476839 -0.047591 0.000682 0.033339 0.000130 -0.001926 0.032675 0.003667 -0.003288 -0.000008 0.000016 -0.000030 -0.000000 -0.000000 -0.000000 -0.000007 0.000017 -0.000030 -0.000001 0.000001 0.000000 -0.000000 0.000003 0.000136 -0.476747 0.044657 0.001251 0.030749 0.000185 -0.001997 0.038913 -0.004324 0.003466 0.000009 -0.000014 0.000027 0.000000 -0.000000 -0.000000 0.000012 -0.000015 0.000025 0.000000 0.000001 0.000000 0.000000 0.000002 -0.000100 -0.000000 -0.000000 0.000000 -0.000000 -0.000000 0.000000 
0.000000 1.067000 -0.000000 1.016676 -0.000000 -0.000000 0.267158 -22.729372 1.745283 -0.170087 -8.462756 0.332935 -0.481912 -21.806603 -0.031083 -0.281997 -27.052440 0.019097 0.000002 0.000021 -179.999991 0.000000 -0.000000 0.000000 0.000000 -0.000000 0.000000 0.000000 -0.000000 -0.000000 0.000000 -0.000000 0.000000 -0.033075 -0.186033 -0.261705 -0.553156 -0.331162 -75.155235 0.000001 -5.678187 0.000000 1.425338 -0.051967 -3.899772 0.000001 -0.000004 0.000000 0.000003 -0.000000 0.000001 -0.000004 0.000000 0.000001 0.000000 0.000002 -0.000000 0.030736 -26.221388 0.276006 -2.973350 16.361042 78.609542 -0.000003 0.221346 0.000000 1.589498 0.069001 4.723611 0.000002 0.000001 0.000001 -0.000003 -0.000001 0.000001 -0.000003 0.000000 0.000000 0.000000 -0.000001 0.000000 0.000000 -0.000000 -0.000000 0.000000 0.000003 0.000000 0.000000 0.000002 -0.000000 0.000000 0.000002 0.000000 0.000001 -0.000002 -0.000000 0.000001 -0.000001 -0.000000 -1.058271 -0.105625 0.000978 0.073842 0.000283 -0.004431 0.072377 0.008120 -0.007286 -0.000011 0.000015 -0.000029 -0.000000 0.000000 -0.000000 -0.000012 0.000015 -0.000029 -0.000001 0.000000 0.000000 -0.000000 0.000003 0.000137 -1.058065 0.099092 0.003280 0.068104 0.000406 -0.004303 0.086199 -0.009576 0.007682 0.000011 -0.000012 0.000028 0.000000 -0.000000 -0.000000 0.000011 -0.000013 0.000026 0.000000 0.000002 0.000000 0.000000 0.000002 -0.000100 -0.000000 -0.000000 -0.000000 -0.000000 -0.000000 -0.000000 
